<?xml version="1.0" encoding="utf-8"?>
<!-- Generator: Adobe Illustrator 22.0.1, SVG Export Plug-In . SVG Version: 6.00 Build 0)  -->
<svg version="1.1" id="Layer_1" xmlns="http://www.w3.org/2000/svg" xmlns:xlink="http://www.w3.org/1999/xlink" x="0px" y="0px"
	 viewBox="0 0 277.5 69.3" style="enable-background:new 0 0 277.5 69.3;" xml:space="preserve">
<style type="text/css">
	.st0{fill:#FFFFFF;}
</style>
<path class="st0" d="M43.3,0l7.8,23.1c0.3,0.6,0.7,0.8,0.9,0.8h37.2c0.2,0,0.6-0.3,0.9-0.8L98,0H43.3z M70.7,19.8c-1.7,0-3-1.4-3-3
	s1.4-3,3-3s3,1.4,3,3S72.4,19.8,70.7,19.8z"/>
<g>
	<path class="st0" d="M38.6,37.8v7.1c0,0.5-0.4,1-1,1h-8.2V31.6c0-0.5,0.4-1,1-1h4.3c0.5,0,1,0.5,1,1v5.2h1.9
		C38.2,36.8,38.6,37.2,38.6,37.8z"/>
</g>
<g>
	<path class="st0" d="M12.8,44.2h-6c-0.6,0-1-0.4-1-1v-5.9c0-0.6,0.4-1,1-1h6c0.6,0,1,0.4,1,1v5.9C13.8,43.8,13.4,44.2,12.8,44.2z"
		/>
</g>
<g>
	<path class="st0" d="M19.3,22.8h-6.9c-0.6,0-1-0.4-1-1v-5.8c0-0.6,0.4-1,1-1h5.9c0.6,0,1,0.4,1,1V22.8z"/>
</g>
<g>
	<path class="st0" d="M28.4,54.2H22c-0.6,0-1-0.4-1-1v-6.3c0-0.6,0.4-1,1-1h7.4v7.3C29.4,53.8,29,54.2,28.4,54.2z"/>
</g>
<g>
	<path class="st0" d="M12.8,54.2h-6c-0.6,0-1-0.4-1-1v-5.9c0-0.6,0.4-1,1-1h6c0.6,0,1,0.4,1,1v5.9C13.8,53.8,13.4,54.2,12.8,54.2z"
		/>
</g>
<g>
	<path class="st0" d="M26.2,30.6h-5.9c-0.6,0-1-0.4-1-1v-6.8h6.9c0.6,0,1,0.4,1,1v5.8C27.2,30.1,26.8,30.6,26.2,30.6z"/>
</g>
<g>
	<path class="st0" d="M26,62.1h-4c-0.6,0-1-0.4-1-1v-3.9c0-0.6,0.4-1,1-1h4c0.6,0,1,0.4,1,1v3.9C27,61.6,26.6,62.1,26,62.1z"/>
</g>
<g>
	<path class="st0" d="M16.1,30.6h-3.6c-0.6,0-1-0.4-1-1V26c0-0.6,0.4-1,1-1h3.6c0.6,0,1,0.4,1,1v3.6C17.1,30.1,16.6,30.6,16.1,30.6z
		"/>
</g>
<g>
	<path class="st0" d="M3.6,33.5H1c-0.6,0-1-0.4-1-1v-2.5c0-0.6,0.4-1,1-1h2.6c0.6,0,1,0.4,1,1v2.5C4.6,33,4.1,33.5,3.6,33.5z"/>
</g>
<path class="st0" d="M93.9,24.5c0,0.1-0.1,0.2-0.1,0.3c-1,1.9-2.7,3.1-4.5,3.1H52.1c-1.8,0-3.5-1.2-4.5-3.1c0-0.1-0.1-0.2-0.1-0.3
	L40.5,4.2V36h8c0.6,0,1,0.4,1,1v8.1h5.1c0.6,0,1,0.4,1,1v4.1c0,0.6-0.4,1-1,1h-5.1v-6.1h-9v9.8H45c0.6,0,1,0.4,1,1v3.6
	c0,0.6-0.4,1-1,1h-4.5v6.7c0,1.1,0.9,2,2,2h56.3c1.1,0,2-0.9,2-2v-63L93.9,24.5z"/>
<g>
	<path class="st0" d="M116.3,20.1h12c2.4,0,4.5,0.3,6.4,0.8s3.4,1.3,4.7,2.2s2.5,2,3.3,3.2c0.9,1.2,1.6,2.4,2.1,3.7
		c0.5,1.3,0.9,2.5,1.1,3.8c0.2,1.3,0.3,2.4,0.3,3.5c0,2.2-0.4,4.3-1.2,6.4c-0.8,2-2,3.9-3.6,5.5c-1.6,1.6-3.5,2.9-5.9,3.8
		s-5,1.5-8.1,1.5h-11.2V20.1z M121,50h5.9c2,0,3.8-0.3,5.6-0.8c1.8-0.5,3.3-1.3,4.6-2.4c1.3-1.1,2.4-2.4,3.1-4s1.2-3.5,1.2-5.6
		c0-1.1-0.2-2.4-0.5-3.8c-0.4-1.5-1-2.9-2-4.2c-1-1.3-2.3-2.4-4.1-3.4c-1.7-0.9-4-1.4-6.8-1.4h-7V50z"/>
	<path class="st0" d="M155.1,44.4c0,1,0.2,1.9,0.7,2.7s1,1.5,1.7,2.1c0.7,0.6,1.5,1,2.5,1.4c0.9,0.3,1.9,0.5,2.9,0.5
		c1.4,0,2.5-0.3,3.5-0.9c1-0.6,1.9-1.5,2.8-2.5l3.3,2.5c-2.4,3.1-5.8,4.7-10.2,4.7c-1.8,0-3.4-0.3-4.9-0.9s-2.7-1.5-3.7-2.5
		c-1-1.1-1.8-2.4-2.3-3.8c-0.5-1.5-0.8-3.1-0.8-4.8s0.3-3.3,0.9-4.8c0.6-1.5,1.4-2.7,2.5-3.8c1-1.1,2.3-1.9,3.8-2.5
		c1.5-0.6,3-0.9,4.7-0.9c2,0,3.8,0.4,5.2,1.1s2.6,1.6,3.5,2.8c0.9,1.1,1.6,2.4,2,3.9c0.4,1.4,0.6,2.9,0.6,4.4v1.5H155.1z M168.9,41
		c0-1-0.2-1.9-0.5-2.7c-0.3-0.8-0.7-1.5-1.2-2.1c-0.5-0.6-1.2-1.1-2.1-1.4c-0.8-0.3-1.8-0.5-2.9-0.5c-1.1,0-2,0.2-2.9,0.6
		c-0.9,0.4-1.6,0.9-2.2,1.6c-0.6,0.6-1.1,1.4-1.4,2.2c-0.3,0.8-0.5,1.6-0.5,2.3H168.9z"/>
	<path class="st0" d="M178.7,17.7h4.4v16.9h0.1c0.8-1.2,1.9-2.1,3.3-2.8c1.5-0.7,3-1,4.6-1c1.8,0,3.4,0.3,4.8,0.9
		c1.4,0.6,2.7,1.5,3.7,2.5c1,1.1,1.8,2.4,2.3,3.8c0.5,1.5,0.8,3.1,0.8,4.8s-0.3,3.3-0.8,4.7c-0.5,1.5-1.3,2.7-2.3,3.8
		s-2.2,2-3.7,2.6s-3,0.9-4.8,0.9c-1.5,0-3.1-0.3-4.5-1s-2.6-1.6-3.5-2.9h-0.1v3.3h-4.4V17.7z M190.6,50.8c1.2,0,2.2-0.2,3.1-0.6
		s1.7-1,2.4-1.6c0.6-0.7,1.1-1.5,1.5-2.5c0.4-1,0.5-2.1,0.5-3.2s-0.2-2.2-0.5-3.2c-0.4-1-0.9-1.8-1.5-2.5c-0.6-0.7-1.4-1.2-2.4-1.6
		c-0.9-0.4-2-0.6-3.1-0.6c-1.2,0-2.2,0.2-3.1,0.6c-0.9,0.4-1.7,1-2.4,1.6c-0.6,0.7-1.1,1.5-1.5,2.5c-0.4,1-0.5,2.1-0.5,3.2
		s0.2,2.2,0.5,3.2c0.4,1,0.9,1.8,1.5,2.5c0.6,0.7,1.4,1.2,2.4,1.6C188.4,50.6,189.5,50.8,190.6,50.8z"/>
	<path class="st0" d="M208.3,31.4h4.4v3.5h0.1c0.3-0.6,0.7-1.2,1.2-1.7c0.5-0.5,1-0.9,1.6-1.3c0.6-0.4,1.2-0.6,2-0.8
		c0.7-0.2,1.4-0.3,2.1-0.3c0.7,0,1.4,0.1,1.9,0.3l-0.2,4.7c-0.4-0.1-0.7-0.2-1.1-0.2c-0.4-0.1-0.7-0.1-1.1-0.1
		c-2.1,0-3.8,0.6-4.9,1.8c-1.1,1.2-1.7,3-1.7,5.6v11.5h-4.4V31.4z"/>
	<path class="st0" d="M225.5,23.1c0-0.9,0.3-1.6,0.9-2.2s1.4-0.9,2.2-0.9s1.6,0.3,2.2,0.9c0.6,0.6,0.9,1.4,0.9,2.2s-0.3,1.6-0.9,2.2
		c-0.6,0.6-1.4,0.9-2.2,0.9s-1.6-0.3-2.2-0.9S225.5,24,225.5,23.1z M226.6,31.4h4.4v22.9h-4.4V31.4z"/>
	<path class="st0" d="M241.1,44.4c0,1,0.2,1.9,0.7,2.7s1,1.5,1.7,2.1c0.7,0.6,1.5,1,2.5,1.4c0.9,0.3,1.9,0.5,2.9,0.5
		c1.4,0,2.5-0.3,3.5-0.9c1-0.6,1.9-1.5,2.8-2.5l3.3,2.5c-2.4,3.1-5.8,4.7-10.2,4.7c-1.8,0-3.4-0.3-4.9-0.9s-2.7-1.5-3.7-2.5
		c-1-1.1-1.8-2.4-2.3-3.8c-0.5-1.5-0.8-3.1-0.8-4.8s0.3-3.3,0.9-4.8c0.6-1.5,1.4-2.7,2.5-3.8c1-1.1,2.3-1.9,3.8-2.5
		c1.5-0.6,3-0.9,4.7-0.9c2,0,3.8,0.4,5.2,1.1c1.4,0.7,2.6,1.6,3.5,2.8c0.9,1.1,1.6,2.4,2,3.9c0.4,1.4,0.6,2.9,0.6,4.4v1.5H241.1z
		 M254.9,41c0-1-0.2-1.9-0.5-2.7c-0.3-0.8-0.7-1.5-1.2-2.1c-0.5-0.6-1.2-1.1-2.1-1.4c-0.8-0.3-1.8-0.5-2.9-0.5c-1.1,0-2,0.2-2.9,0.6
		c-0.9,0.4-1.6,0.9-2.2,1.6c-0.6,0.6-1.1,1.4-1.4,2.2c-0.3,0.8-0.5,1.6-0.5,2.3H254.9z"/>
	<path class="st0" d="M266.4,35.2h-4.9v-3.8h4.9v-5.1c0-3.1,0.6-5.3,1.8-6.8c1.2-1.5,3.2-2.2,6.1-2.2c0.5,0,1,0,1.5,0
		c0.5,0,1.1,0.1,1.7,0.3l-0.5,3.9c-0.4-0.2-0.8-0.3-1.2-0.3s-0.8-0.1-1.3-0.1c-0.8,0-1.5,0.1-1.9,0.4c-0.5,0.2-0.9,0.6-1.1,1
		c-0.3,0.5-0.5,1-0.5,1.6c-0.1,0.6-0.1,1.3-0.1,2.2v5.3h5.2v3.8h-5.2v19.2h-4.4V35.2z"/>
</g>
</svg>
